# Blender v2.83.5 OBJ File: 'missile.blend'
# www.blender.org
mtllib missile.mtl
o Cylinder
v -0.000000 -0.038621 -0.233447
v 0.000000 -0.038621 0.263380
v -0.019310 -0.033446 -0.233447
v -0.019310 -0.033446 0.263380
v -0.033446 -0.019310 -0.233447
v -0.033446 -0.019310 0.263380
v -0.038621 0.000000 -0.233447
v -0.038621 0.000000 0.263380
v -0.033446 0.019310 -0.233447
v -0.033446 0.019310 0.263380
v -0.019310 0.033446 -0.233447
v -0.019310 0.033446 0.263380
v -0.000000 0.038621 -0.233447
v 0.000000 0.038621 0.263380
v 0.019310 0.033446 -0.233447
v 0.019310 0.033446 0.263380
v 0.033446 0.019310 -0.233447
v 0.033446 0.019310 0.263380
v 0.038621 0.000000 -0.233447
v 0.038621 0.000000 0.263380
v 0.033446 -0.019310 -0.233447
v 0.033447 -0.019310 0.263380
v 0.019310 -0.033446 -0.233447
v 0.019310 -0.033446 0.263380
v -0.000000 -0.050830 -0.233447
v -0.025415 -0.044020 -0.233447
v -0.044020 -0.025415 -0.233447
v -0.050830 0.000000 -0.233447
v -0.044020 0.025415 -0.233447
v -0.025415 0.044020 -0.233447
v -0.000000 0.050830 -0.233447
v 0.025415 0.044020 -0.233447
v 0.044020 0.025415 -0.233447
v 0.050830 0.000000 -0.233447
v 0.044020 -0.025415 -0.233447
v 0.025415 -0.044020 -0.233447
v -0.000000 -0.050830 -0.282288
v -0.025415 -0.044020 -0.282288
v -0.044020 -0.025415 -0.282288
v -0.050830 0.000000 -0.282288
v -0.044020 0.025415 -0.282288
v -0.025415 0.044020 -0.282288
v -0.000000 0.050830 -0.282288
v 0.025415 0.044020 -0.282288
v 0.044020 0.025415 -0.282288
v 0.050830 0.000000 -0.282288
v 0.044020 -0.025415 -0.282288
v 0.025415 -0.044020 -0.282288
v -0.000000 -0.041380 -0.353735
v -0.020690 -0.035836 -0.353735
v -0.035836 -0.020690 -0.353735
v -0.041380 0.000000 -0.353735
v -0.035836 0.020690 -0.353735
v -0.020690 0.035836 -0.353735
v -0.000000 0.041380 -0.353735
v 0.020690 0.035836 -0.353735
v 0.035836 0.020690 -0.353735
v 0.041380 0.000000 -0.353735
v 0.035836 -0.020690 -0.353735
v 0.020690 -0.035836 -0.353735
v -0.000000 -0.026006 -0.397942
v -0.013003 -0.022522 -0.397942
v -0.022522 -0.013003 -0.397942
v -0.026006 0.000000 -0.397942
v -0.022522 0.013003 -0.397942
v -0.013003 0.022522 -0.397942
v -0.000000 0.026006 -0.397942
v 0.013003 0.022522 -0.397942
v 0.022522 0.013003 -0.397942
v 0.026006 0.000000 -0.397942
v 0.022522 -0.013003 -0.397942
v 0.013003 -0.022522 -0.397942
v 0.047380 -0.027355 0.263380
v 0.054710 0.000000 0.263380
v 0.047380 0.027355 0.263380
v 0.027355 0.047380 0.263380
v 0.000000 0.054710 0.263380
v -0.027355 0.047380 0.263380
v -0.047380 0.027355 0.263380
v -0.000000 0.000000 -0.421720
v -0.054710 0.000000 0.263380
v -0.047380 -0.027355 0.263380
v -0.027355 -0.047380 0.263380
v 0.000000 -0.054710 0.263380
v 0.027355 -0.047380 0.263380
v 0.047380 -0.027355 0.334682
v 0.054710 0.000000 0.334682
v 0.047380 0.027355 0.334682
v 0.027355 0.047380 0.334682
v 0.000000 0.054710 0.334682
v -0.027355 0.047380 0.334682
v -0.047380 0.027355 0.334682
v -0.054710 0.000000 0.334682
v -0.047380 -0.027355 0.334682
v -0.027355 -0.047380 0.334682
v 0.000000 -0.054710 0.334682
v 0.027355 -0.047380 0.334682
v 0.018194 -0.010504 0.334682
v 0.021008 0.000000 0.334682
v 0.018194 0.010504 0.334682
v 0.010504 0.018194 0.334682
v 0.000000 0.021008 0.334682
v -0.010504 0.018194 0.334682
v -0.018194 0.010504 0.334682
v -0.021008 0.000000 0.334682
v -0.018194 -0.010504 0.334682
v -0.010504 -0.018194 0.334682
v 0.000000 -0.021008 0.334682
v 0.010504 -0.018194 0.334682
v 0.052590 -0.030363 0.375830
v 0.060726 0.000000 0.375830
v 0.052590 0.030363 0.375830
v 0.030363 0.052590 0.375830
v 0.000000 0.060726 0.375830
v -0.030363 0.052590 0.375830
v -0.052590 0.030363 0.375830
v -0.060726 0.000000 0.375830
v -0.052590 -0.030363 0.375830
v -0.030363 -0.052590 0.375830
v 0.000000 -0.060726 0.375830
v 0.030363 -0.052590 0.375830
v 0.045590 -0.026321 0.375830
v 0.052643 0.000000 0.375830
v 0.045590 0.026321 0.375830
v 0.026321 0.045590 0.375830
v 0.000000 0.052643 0.375830
v -0.026321 0.045590 0.375830
v -0.045590 0.026321 0.375830
v -0.052643 0.000000 0.375830
v -0.045590 -0.026321 0.375830
v -0.026321 -0.045590 0.375830
v 0.000000 -0.052643 0.375830
v 0.026321 -0.045590 0.375830
v 0.033210 -0.019174 0.360036
v 0.038348 0.000000 0.360036
v 0.033210 0.019174 0.360036
v 0.019174 0.033210 0.360036
v 0.000000 0.038348 0.360036
v -0.019174 0.033210 0.360036
v -0.033210 0.019174 0.360036
v -0.038348 0.000000 0.360036
v -0.033210 -0.019174 0.360036
v -0.019174 -0.033210 0.360036
v 0.000000 -0.038348 0.360036
v 0.019174 -0.033210 0.360036
v 0.073298 -0.055978 0.317497
v 0.073298 0.055978 0.317497
v 0.055978 0.073298 0.317497
v -0.055978 0.073298 0.317497
v -0.073298 0.055978 0.317497
v -0.073298 -0.055978 0.317497
v -0.055978 -0.073298 0.317497
v 0.055978 -0.073298 0.317497
v 0.073298 -0.055978 0.379166
v 0.073298 0.055978 0.379166
v 0.055978 0.073298 0.379166
v -0.055978 0.073298 0.379166
v -0.073298 0.055978 0.379166
v -0.073298 -0.055978 0.379166
v -0.055978 -0.073298 0.379166
v 0.055978 -0.073298 0.379166
vt 0.429918 0.338584
vt 0.429918 0.485530
vt 0.405427 0.485530
vt 0.405427 0.338584
vt 0.380937 0.485530
vt 0.380937 0.338584
vt 0.356446 0.485530
vt 0.356446 0.338584
vt 0.331955 0.485530
vt 0.331955 0.338584
vt 0.307464 0.485530
vt 0.307464 0.338584
vt 0.282973 0.485530
vt 0.282973 0.338584
vt 0.258482 0.485530
vt 0.258482 0.338584
vt 0.233991 0.485530
vt 0.233991 0.338584
vt 0.209500 0.485530
vt 0.209500 0.338584
vt 0.185009 0.485530
vt 0.185009 0.338584
vt 0.544192 0.956595
vt 0.606985 0.956595
vt 0.606985 0.956595
vt 0.544192 0.956595
vt 0.160518 0.485530
vt 0.160518 0.338584
vt 0.136027 0.485530
vt 0.136027 0.338584
vt 0.207015 0.906151
vt 0.135319 0.906151
vt 0.135319 0.906151
vt 0.207015 0.906151
vt 0.786784 0.642618
vt 0.715088 0.642618
vt 0.715088 0.642618
vt 0.786784 0.642618
vt 0.852279 0.906151
vt 0.780583 0.906151
vt 0.780583 0.906151
vt 0.852279 0.906151
vt 0.278711 0.906151
vt 0.278711 0.906151
vt 0.350407 0.906151
vt 0.350407 0.906151
vt 0.422103 0.906151
vt 0.422103 0.906151
vt 0.493799 0.906151
vt 0.493799 0.906151
vt 0.565495 0.906151
vt 0.565495 0.906151
vt 0.637191 0.906151
vt 0.637191 0.906151
vt 0.708887 0.906151
vt 0.708887 0.906151
vt 0.063623 0.906151
vt 0.063623 0.906151
vt 0.923975 0.906151
vt 0.923975 0.906151
vt 0.571696 0.642618
vt 0.500000 0.642618
vt 0.500000 0.642618
vt 0.571696 0.642618
vt 0.284912 0.642618
vt 0.213216 0.642618
vt 0.213216 0.642618
vt 0.284912 0.642618
vt 0.500000 0.642618
vt 0.428304 0.642618
vt 0.428304 0.642618
vt 0.643392 0.642618
vt 0.643392 0.642618
vt 0.191513 0.921653
vt 0.119817 0.921653
vt 0.119817 0.921653
vt 0.191513 0.921653
vt 0.930176 0.642618
vt 0.858480 0.642618
vt 0.858480 0.642618
vt 0.930176 0.642618
vt 0.406601 0.921653
vt 0.334905 0.921653
vt 0.334905 0.921653
vt 0.406601 0.921653
vt 0.621689 0.921653
vt 0.549993 0.921653
vt 0.549993 0.921653
vt 0.621689 0.921653
vt 0.141520 0.642618
vt 0.069824 0.642618
vt 0.069824 0.642618
vt 0.141520 0.642618
vt 0.836777 0.921653
vt 0.765081 0.921653
vt 0.765081 0.921653
vt 0.836777 0.921653
vt 0.356608 0.642618
vt 0.356608 0.642618
vt 0.571696 0.642618
vt 0.500000 0.642618
vt 0.571696 0.642618
vt 0.715088 0.642618
vt 0.786784 0.642618
vt 0.213216 0.642618
vt 0.284912 0.642618
vt 0.428304 0.642618
vt 0.643392 0.642618
vt 0.119817 0.921653
vt 0.191513 0.921653
vt 0.858480 0.642618
vt 0.930176 0.642618
vt 0.334905 0.921653
vt 0.406601 0.921653
vt 0.549993 0.921653
vt 0.621689 0.921653
vt 0.069824 0.642618
vt 0.141520 0.642618
vt 0.765081 0.921653
vt 0.836777 0.921653
vt 0.356608 0.642618
vt 0.356608 0.642618
vt 0.284912 0.642618
vt 0.356608 0.642618
vt 0.715088 0.642618
vt 0.786784 0.642618
vt 0.213216 0.642618
vt 0.428304 0.642618
vt 0.643392 0.642618
vt 0.119817 0.921653
vt 0.191513 0.921653
vt 0.858480 0.642618
vt 0.930176 0.642618
vt 0.334905 0.921653
vt 0.406601 0.921653
vt 0.549993 0.921653
vt 0.621689 0.921653
vt 0.069824 0.642618
vt 0.141520 0.642618
vt 0.765081 0.921653
vt 0.836777 0.921653
vt 0.355810 0.956595
vt 0.418604 0.956595
vt 0.418604 0.956595
vt 0.355810 0.956595
vt 0.571696 0.642618
vt 0.786784 0.642618
vt 0.284912 0.642618
vt 0.500000 0.642618
vt 0.715088 0.642618
vt 0.191513 0.921653
vt 0.930176 0.642618
vt 0.406601 0.921653
vt 0.621689 0.921653
vt 0.141520 0.642618
vt 0.836777 0.921653
vt 0.293016 0.956595
vt 0.293016 0.956595
vt 0.230222 0.956595
vt 0.230222 0.956595
vt 0.732573 0.956595
vt 0.795367 0.956595
vt 0.795367 0.956595
vt 0.732573 0.956595
vt 0.167429 0.956595
vt 0.167429 0.956595
vt 0.669779 0.956595
vt 0.669779 0.956595
vt 0.858161 0.956595
vt 0.858161 0.956595
vt 0.104635 0.956595
vt 0.104635 0.956595
vt 0.783580 0.705463
vt 0.783580 0.705463
vt 0.783580 0.705463
vt 0.783580 0.705463
vt 0.481398 0.956595
vt 0.481398 0.956595
vt 0.503101 0.779872
vt 0.557067 0.779872
vt 0.557067 0.779872
vt 0.503101 0.779872
vt 0.850599 0.705463
vt 0.917618 0.705463
vt 0.917618 0.705463
vt 0.850599 0.705463
vt 0.247424 0.705463
vt 0.180405 0.705463
vt 0.180405 0.705463
vt 0.247424 0.705463
vt 0.649541 0.705463
vt 0.716560 0.705463
vt 0.716560 0.705463
vt 0.649541 0.705463
vt 0.448483 0.705463
vt 0.515502 0.705463
vt 0.515502 0.705463
vt 0.448483 0.705463
vt 0.247424 0.705463
vt 0.314444 0.705463
vt 0.314444 0.705463
vt 0.582521 0.705463
vt 0.582521 0.705463
vt 0.381463 0.705463
vt 0.381463 0.705463
vt 0.557718 0.910089
vt 0.624738 0.910089
vt 0.624738 0.910089
vt 0.557718 0.910089
vt 0.113386 0.705463
vt 0.180405 0.705463
vt 0.113386 0.705463
vt 0.381463 0.705463
vt 0.381463 0.705463
vt 0.665000 0.779872
vt 0.718966 0.779872
vt 0.718966 0.779872
vt 0.665000 0.779872
vt 0.287235 0.779872
vt 0.341201 0.779872
vt 0.341201 0.779872
vt 0.287235 0.779872
vt 0.718966 0.779872
vt 0.772933 0.779872
vt 0.772933 0.779872
vt 0.449134 0.779872
vt 0.449134 0.779872
vt 0.233268 0.779872
vt 0.233268 0.779872
vt 0.826899 0.779872
vt 0.826899 0.779872
vt 0.395168 0.779872
vt 0.395168 0.779872
vt 0.611033 0.779872
vt 0.665000 0.779872
vt 0.611033 0.779872
vt 0.179302 0.779872
vt 0.179302 0.779872
vt 0.449134 0.779872
vt 0.503101 0.779872
vt 0.503101 0.779872
vt 0.449134 0.779872
vt 0.287235 0.779872
vt 0.233268 0.779872
vt 0.395168 0.779872
vt 0.772933 0.779872
vt 0.611033 0.779872
vt 0.557067 0.779872
vt 0.179302 0.779872
vt 0.341201 0.779872
vt 0.826899 0.779872
vt 0.503101 0.779872
vt 0.449134 0.779872
vt 0.718966 0.779872
vt 0.665000 0.779872
vt 0.287235 0.779872
vt 0.233268 0.779872
vt 0.395168 0.779872
vt 0.772933 0.779872
vt 0.611033 0.779872
vt 0.557067 0.779872
vt 0.179302 0.779872
vt 0.341201 0.779872
vt 0.826899 0.779872
vt 0.167934 0.164539
vt 0.125984 0.175779
vt 0.084035 0.164539
vt 0.053325 0.133830
vt 0.042085 0.091880
vt 0.053325 0.049930
vt 0.084035 0.019221
vt 0.125984 0.007981
vt 0.167934 0.019221
vt 0.198643 0.049930
vt 0.209884 0.091880
vt 0.198643 0.133830
vt 0.718966 0.779872
vt 0.665000 0.779872
vt 0.287235 0.779872
vt 0.233268 0.779872
vt 0.395168 0.779872
vt 0.772933 0.779872
vt 0.611033 0.779872
vt 0.557067 0.779872
vt 0.179302 0.779872
vt 0.341201 0.779872
vt 0.826899 0.779872
vt 0.356660 0.910089
vt 0.423680 0.910089
vt 0.423680 0.910089
vt 0.356660 0.910089
vt 0.155602 0.910089
vt 0.222621 0.910089
vt 0.222621 0.910089
vt 0.155602 0.910089
vt 0.758776 0.910089
vt 0.825796 0.910089
vt 0.825796 0.910089
vt 0.758776 0.910089
vt 0.624738 0.910089
vt 0.557718 0.910089
vt 0.850599 0.705463
vt 0.850599 0.705463
vt 0.582521 0.705463
vt 0.582521 0.705463
vt 0.155602 0.910089
vt 0.222621 0.910089
vt 0.649541 0.705463
vt 0.247424 0.705463
vt 0.180405 0.705463
vt 0.758776 0.910089
vt 0.825796 0.910089
vt 0.356660 0.910089
vt 0.423680 0.910089
vt 0.448483 0.705463
vt 0.649541 0.705463
vt 0.448483 0.705463
vn -0.2588 -0.9659 0.0000
vn -0.7071 -0.7071 0.0000
vn -0.9659 -0.2588 0.0000
vn -0.9659 0.2588 0.0000
vn -0.7071 0.7071 0.0000
vn -0.2588 0.9659 0.0000
vn 0.2588 0.9659 -0.0000
vn 0.7071 0.7071 -0.0000
vn 0.9659 0.2588 -0.0000
vn 0.9659 -0.2588 -0.0000
vn 0.0000 0.0000 -1.0000
vn 0.7071 -0.7071 -0.0000
vn 0.2588 -0.9659 -0.0000
vn 0.0000 0.0000 1.0000
vn -0.2567 0.9581 -0.1267
vn -0.2453 0.9156 -0.3184
vn -0.9581 -0.2567 -0.1267
vn 0.9581 -0.2567 -0.1267
vn 0.2567 0.9581 -0.1267
vn -0.9581 0.2567 -0.1267
vn 0.7014 -0.7014 -0.1267
vn -0.2567 -0.9581 -0.1267
vn 0.7014 0.7014 -0.1267
vn -0.7014 0.7014 -0.1267
vn 0.2567 -0.9581 -0.1267
vn -0.7014 -0.7014 -0.1267
vn 0.9581 0.2567 -0.1267
vn 0.6640 0.1779 -0.7262
vn -0.9156 -0.2453 -0.3184
vn 0.9156 -0.2453 -0.3184
vn 0.2453 0.9156 -0.3184
vn -0.9156 0.2453 -0.3184
vn 0.6703 -0.6703 -0.3184
vn -0.2453 -0.9156 -0.3184
vn 0.6703 0.6703 -0.3184
vn -0.6703 0.6703 -0.3184
vn 0.2453 -0.9156 -0.3184
vn -0.6703 -0.6703 -0.3184
vn 0.9156 0.2453 -0.3184
vn -0.1779 0.6640 -0.7262
vn -0.6640 -0.1779 -0.7262
vn 0.6640 -0.1779 -0.7262
vn 0.1779 0.6640 -0.7262
vn -0.6640 0.1779 -0.7262
vn 0.4861 -0.4861 -0.7262
vn -0.1779 -0.6640 -0.7262
vn 0.4861 0.4861 -0.7262
vn -0.4861 0.4861 -0.7262
vn 0.1779 -0.6640 -0.7262
vn -0.4861 -0.4861 -0.7262
vn -0.7413 0.6712 0.0000
vn -0.5343 0.5343 0.6551
vn -0.5758 0.5758 -0.5804
vn 0.7413 -0.6712 0.0000
vn -0.7065 -0.1893 -0.6819
vn 0.5172 -0.5172 -0.6819
vn 0.5172 0.5172 -0.6819
vn -0.5172 -0.5172 -0.6819
vn -0.5172 0.5172 -0.6819
vn 0.1893 -0.7065 -0.6819
vn 0.7065 0.1893 -0.6819
vn -0.1893 -0.7065 -0.6819
vn -0.1893 0.7065 -0.6819
vn -0.7065 0.1893 -0.6819
vn 0.7065 -0.1893 -0.6819
vn 0.1893 0.7065 -0.6819
vn -0.1949 -0.7272 0.6582
vn 0.7272 0.1949 0.6582
vn -0.5323 0.5323 0.6582
vn -0.5323 -0.5323 0.6582
vn 0.5323 0.5323 0.6582
vn 0.5323 -0.5323 0.6582
vn -0.1949 0.7272 0.6582
vn -0.7272 -0.1949 0.6582
vn 0.1949 0.7272 0.6582
vn 0.1949 -0.7272 0.6582
vn 0.7272 -0.1949 0.6582
vn -0.7272 0.1949 0.6582
vn 0.6712 -0.7413 -0.0000
vn 0.6712 0.7413 -0.0000
vn 0.5758 -0.5758 -0.5804
vn 0.5343 -0.5343 0.6551
vn 0.7413 0.6712 0.0000
vn -0.6712 -0.7413 -0.0000
vn -0.5758 -0.5758 -0.5804
vn 0.5343 0.5343 0.6551
vn 0.5758 0.5758 -0.5804
vn -0.5343 -0.5343 0.6551
vn -0.7413 -0.6712 0.0000
vn -0.6712 0.7413 -0.0000
usemtl Material.001
s off
f 1/1/1 2/2/1 4/3/1 3/4/1
f 3/4/2 4/3/2 6/5/2 5/6/2
f 5/6/3 6/5/3 8/7/3 7/8/3
f 7/8/4 8/7/4 10/9/4 9/10/4
f 9/10/5 10/9/5 12/11/5 11/12/5
f 11/12/6 12/11/6 14/13/6 13/14/6
f 13/14/7 14/13/7 16/15/7 15/16/7
f 15/16/8 16/15/8 18/17/8 17/18/8
f 17/18/9 18/17/9 20/19/9 19/20/9
f 19/20/10 20/19/10 22/21/10 21/22/10
f 12/23/11 10/24/11 79/25/11 78/26/11
f 21/22/12 22/21/12 24/27/12 23/28/12
f 23/28/13 24/27/13 2/29/13 1/30/13
f 21/31/14 23/32/14 36/33/14 35/34/14
f 27/35/3 28/36/3 40/37/3 39/38/3
f 3/39/14 5/40/14 27/41/14 26/42/14
f 19/43/14 21/31/14 35/34/14 34/44/14
f 17/45/14 19/43/14 34/44/14 33/46/14
f 15/47/14 17/45/14 33/46/14 32/48/14
f 13/49/14 15/47/14 32/48/14 31/50/14
f 11/51/14 13/49/14 31/50/14 30/52/14
f 9/53/14 11/51/14 30/52/14 29/54/14
f 7/55/14 9/53/14 29/54/14 28/56/14
f 23/32/14 1/57/14 25/58/14 36/33/14
f 1/59/14 3/39/14 26/42/14 25/60/14
f 5/40/14 7/55/14 28/56/14 27/41/14
f 42/61/15 43/62/15 55/63/15 54/64/15
f 34/65/10 35/66/10 47/67/10 46/68/10
f 31/69/7 32/70/7 44/71/7 43/62/7
f 28/36/4 29/72/4 41/73/4 40/37/4
f 35/74/12 36/75/12 48/76/12 47/77/12
f 25/78/1 26/79/1 38/80/1 37/81/1
f 32/82/8 33/83/8 45/84/8 44/85/8
f 29/86/5 30/87/5 42/88/5 41/89/5
f 36/90/13 25/91/13 37/92/13 48/93/13
f 26/94/2 27/95/2 39/96/2 38/97/2
f 33/98/9 34/65/9 46/68/9 45/99/9
f 30/100/6 31/69/6 43/62/6 42/61/6
f 54/64/16 55/63/16 67/101/16 66/102/16
f 39/38/17 40/37/17 52/103/17 51/104/17
f 46/68/18 47/67/18 59/105/18 58/106/18
f 43/62/19 44/71/19 56/107/19 55/63/19
f 40/37/20 41/73/20 53/108/20 52/103/20
f 47/77/21 48/76/21 60/109/21 59/110/21
f 37/81/22 38/80/22 50/111/22 49/112/22
f 44/85/23 45/84/23 57/113/23 56/114/23
f 41/89/24 42/88/24 54/115/24 53/116/24
f 48/93/25 37/92/25 49/117/25 60/118/25
f 38/97/26 39/96/26 51/119/26 50/120/26
f 45/99/27 46/68/27 58/106/27 57/121/27
f 69/122/28 70/123/28 80/124/28
f 51/104/29 52/103/29 64/125/29 63/126/29
f 58/106/30 59/105/30 71/127/30 70/123/30
f 55/63/31 56/107/31 68/128/31 67/101/31
f 52/103/32 53/108/32 65/129/32 64/125/32
f 59/110/33 60/109/33 72/130/33 71/131/33
f 49/112/34 50/111/34 62/132/34 61/133/34
f 56/114/35 57/113/35 69/134/35 68/135/35
f 53/116/36 54/115/36 66/136/36 65/137/36
f 60/118/37 49/117/37 61/138/37 72/139/37
f 50/120/38 51/119/38 63/140/38 62/141/38
f 57/121/39 58/106/39 70/123/39 69/122/39
f 18/142/11 16/143/11 76/144/11 75/145/11
f 66/102/40 67/101/40 80/146/40
f 63/126/41 64/125/41 80/147/41
f 70/123/42 71/127/42 80/148/42
f 67/101/43 68/128/43 80/149/43
f 64/125/44 65/129/44 80/150/44
f 71/131/45 72/130/45 80/151/45
f 61/133/46 62/132/46 80/152/46
f 68/135/47 69/134/47 80/153/47
f 65/137/48 66/136/48 80/154/48
f 72/139/49 61/138/49 80/155/49
f 62/141/50 63/140/50 80/156/50
f 20/157/11 18/142/11 75/145/11 74/158/11
f 22/159/11 20/157/11 74/158/11 73/160/11
f 6/161/11 4/162/11 83/163/11 82/164/11
f 24/165/11 22/159/11 73/160/11 85/166/11
f 8/167/11 6/161/11 82/164/11 81/168/11
f 4/162/11 2/169/11 84/170/11 83/163/11
f 2/171/11 24/165/11 85/166/11 84/172/11
f 10/24/11 8/167/11 81/168/11 79/25/11
f 94/173/51 82/174/51 151/175/51 159/176/51
f 16/143/11 14/177/11 77/178/11 76/144/11
f 14/177/11 12/23/11 78/26/11 77/178/11
f 90/179/14 91/180/14 103/181/14 102/182/14
f 83/183/1 84/184/1 96/185/1 95/186/1
f 86/187/52 97/188/52 161/189/52 154/190/52
f 79/191/4 81/192/4 93/193/4 92/194/4
f 76/195/7 77/196/7 90/197/7 89/198/7
f 73/199/10 74/200/10 87/201/10 86/187/10
f 81/192/3 82/174/3 94/173/3 93/193/3
f 77/196/6 78/202/6 91/203/6 90/197/6
f 74/200/9 75/204/9 88/205/9 87/201/9
f 78/206/53 79/207/53 150/208/53 149/209/53
f 84/210/13 85/211/13 97/188/13 96/212/13
f 88/205/54 75/204/54 147/213/54 155/214/54
f 105/215/55 106/216/55 118/217/55 117/218/55
f 86/219/14 87/220/14 99/221/14 98/222/14
f 94/223/14 95/224/14 107/225/14 106/216/14
f 89/226/14 90/179/14 102/182/14 101/227/14
f 97/228/14 86/219/14 98/222/14 109/229/14
f 95/224/14 96/230/14 108/231/14 107/225/14
f 88/232/14 89/226/14 101/227/14 100/233/14
f 92/234/14 93/235/14 105/215/14 104/236/14
f 91/180/14 92/234/14 104/236/14 103/181/14
f 96/237/14 97/228/14 109/229/14 108/238/14
f 87/220/14 88/232/14 100/233/14 99/221/14
f 93/235/14 94/223/14 106/216/14 105/215/14
f 113/239/14 114/240/14 126/241/14 125/242/14
f 109/229/56 98/222/56 110/243/56 121/244/56
f 100/233/57 101/227/57 113/239/57 112/245/57
f 106/216/58 107/225/58 119/246/58 118/217/58
f 103/181/59 104/236/59 116/247/59 115/248/59
f 108/238/60 109/229/60 121/244/60 120/249/60
f 99/221/61 100/233/61 112/245/61 111/250/61
f 107/225/62 108/231/62 120/251/62 119/246/62
f 102/182/63 103/181/63 115/248/63 114/240/63
f 104/236/64 105/215/64 117/218/64 116/247/64
f 98/222/65 99/221/65 111/250/65 110/243/65
f 101/227/66 102/182/66 114/240/66 113/239/66
f 125/242/67 126/241/67 138/252/67 137/253/67
f 117/218/14 118/217/14 130/254/14 129/255/14
f 121/244/14 110/243/14 122/256/14 133/257/14
f 112/245/14 113/239/14 125/242/14 124/258/14
f 118/217/14 119/246/14 131/259/14 130/254/14
f 115/248/14 116/247/14 128/260/14 127/261/14
f 120/249/14 121/244/14 133/257/14 132/262/14
f 111/250/14 112/245/14 124/258/14 123/263/14
f 119/246/14 120/251/14 132/264/14 131/259/14
f 114/240/14 115/248/14 127/261/14 126/241/14
f 116/247/14 117/218/14 129/255/14 128/260/14
f 110/243/14 111/250/14 123/263/14 122/256/14
f 143/265/14 144/266/14 145/267/14 134/268/14 135/269/14 136/270/14 137/271/14 138/272/14 139/273/14 140/274/14 141/275/14 142/276/14
f 129/255/68 130/254/68 142/277/68 141/278/68
f 133/257/69 122/256/69 134/279/69 145/280/69
f 124/258/70 125/242/70 137/253/70 136/281/70
f 130/254/71 131/259/71 143/282/71 142/277/71
f 127/261/72 128/260/72 140/283/72 139/284/72
f 132/262/73 133/257/73 145/280/73 144/285/73
f 123/263/74 124/258/74 136/281/74 135/286/74
f 131/259/75 132/264/75 144/287/75 143/282/75
f 126/241/76 127/261/76 139/284/76 138/252/76
f 128/260/77 129/255/77 141/278/77 140/283/77
f 122/256/78 123/263/78 135/286/78 134/279/78
f 147/288/8 148/289/8 156/290/8 155/291/8
f 153/292/12 146/293/12 154/294/12 161/295/12
f 151/296/2 152/297/2 160/298/2 159/299/2
f 149/209/5 150/208/5 158/300/5 157/301/5
f 83/183/79 95/186/79 160/302/79 152/303/79
f 91/203/80 78/202/80 149/304/80 157/305/80
f 85/306/81 73/307/81 146/293/81 153/292/81
f 92/194/82 91/203/82 157/305/82 158/308/82
f 73/199/83 86/187/83 154/190/83 146/309/83
f 97/188/84 85/211/84 153/310/84 161/189/84
f 82/311/85 83/312/85 152/297/85 151/296/85
f 95/186/86 94/173/86 159/176/86 160/302/86
f 75/313/87 76/314/87 148/289/87 147/288/87
f 89/198/88 88/205/88 155/214/88 156/315/88
f 79/191/89 92/194/89 158/308/89 150/316/89
f 76/195/90 89/198/90 156/315/90 148/317/90
