# Blender v2.83.5 OBJ File: 'asteroid.blend'
# www.blender.org
mtllib asteroid.mtl
o Icosphere
v 0.000000 -0.536221 0.033339
v 0.581015 -0.288727 0.917637
v -0.221924 -0.184813 1.393887
v -0.718173 -0.288724 0.007452
v -0.040068 -0.178781 -1.225630
v 0.687723 -0.146174 -0.767424
v 0.180633 0.278491 1.314445
v -0.581015 0.288727 0.917637
v -0.524909 0.287753 -0.892145
v 0.330410 0.447530 -1.201523
v 0.718173 0.146526 0.007452
v -0.019796 0.437462 -0.023206
v -0.130442 -0.461679 0.929178
v 0.341510 -0.549186 0.542441
v 0.211069 -0.235504 1.321800
v 0.683021 -0.339417 0.007452
v 0.424280 -0.422343 -0.409607
v -0.422131 -0.439801 0.033339
v -0.552576 -0.339417 0.873093
v 0.009769 -0.488609 -0.781473
v -0.430746 -0.330979 -0.826783
v 0.396046 -0.142073 -1.262327
v 0.763645 0.000000 0.542444
v 0.776638 0.173310 -0.386681
v -0.024937 0.036371 1.430070
v 0.412243 0.011040 1.247678
v -0.763645 0.000000 0.542444
v -0.462117 0.011040 1.247678
v -0.331159 0.079955 -1.185788
v -0.763645 0.000000 -0.527540
v 0.602405 0.135699 -1.208261
v 0.165073 0.146480 -1.355057
v 0.552576 0.339417 0.873093
v -0.220452 0.325447 1.247670
v -0.683021 0.197219 0.007452
v -0.113396 0.448091 -1.171609
v 0.579886 0.475179 -0.744379
v 0.130442 0.549186 0.873091
v 0.402335 0.341043 -0.023206
v -0.341510 0.406988 0.542441
v -0.361306 0.483242 -0.558195
v 0.132220 0.564084 -0.819997
vt 0.818181 0.000000
vt 0.772726 0.078731
vt 0.863635 0.078731
vt 0.727272 0.157461
vt 0.681818 0.078731
vt 0.636363 0.157461
vt 0.090909 0.000000
vt 0.045454 0.078731
vt 0.136363 0.078731
vt 0.272727 0.000000
vt 0.227273 0.078731
vt 0.318182 0.078731
vt 0.454545 0.000000
vt 0.409090 0.078731
vt 0.500000 0.078731
vt 0.681818 0.236191
vt 0.909090 0.157461
vt 0.818181 0.157461
vt 0.863635 0.236191
vt 0.181818 0.157461
vt 0.090909 0.157461
vt 0.136363 0.236191
vt 0.363636 0.157461
vt 0.272727 0.157461
vt 0.318182 0.236191
vt 0.545454 0.157461
vt 0.454545 0.157461
vt 0.500000 0.236191
vt 0.772726 0.236191
vt 0.954545 0.236191
vt 0.227273 0.236191
vt 0.409090 0.236191
vt 0.590909 0.236191
vt 0.818181 0.314921
vt 0.727272 0.314921
vt 0.772726 0.393651
vt 1.000000 0.314921
vt 0.909091 0.314921
vt 0.954545 0.393651
vt 0.272727 0.314921
vt 0.181818 0.314921
vt 0.227273 0.393651
vt 0.454545 0.314921
vt 0.363636 0.314921
vt 0.409090 0.393651
vt 0.636363 0.314921
vt 0.545454 0.314921
vt 0.590909 0.393651
vt 0.500000 0.393651
vt 0.545454 0.472382
vt 0.318182 0.393651
vt 0.363636 0.472382
vt 0.136363 0.393651
vt 0.181818 0.472382
vt 0.090909 0.314921
vt 0.863635 0.393651
vt 0.909090 0.472382
vt 0.681818 0.393651
vt 0.727272 0.472382
vt 0.045454 0.236191
vt 0.000000 0.157461
vt 0.590909 0.078731
vt 0.636363 0.000000
vn -0.1317 -0.9893 0.0631
vn 0.6438 -0.7566 0.1143
vn -0.2224 -0.9737 0.0486
vn -0.2223 -0.9732 -0.0595
vn 0.2052 -0.9772 -0.0546
vn 0.9035 -0.4102 0.1241
vn 0.1274 -0.2696 0.9545
vn -0.8979 -0.4147 0.1475
vn -0.5258 -0.4838 -0.6996
vn 0.7566 -0.4745 -0.4498
vn 0.8950 0.0131 0.4458
vn -0.3872 0.1975 0.9006
vn -0.9878 -0.1556 0.0000
vn -0.2946 -0.1871 -0.9371
vn 0.9781 -0.0265 -0.2062
vn 0.3982 0.8014 0.4462
vn -0.2365 0.9597 0.1516
vn -0.7166 0.6953 -0.0560
vn -0.0191 0.9534 -0.3012
vn 0.4849 0.8306 0.2739
vn 0.2185 0.9564 0.1937
vn 0.1547 0.9638 0.2173
vn 0.2206 0.9589 -0.1784
vn -0.0872 0.9863 0.1401
vn -0.2372 0.9597 -0.1509
vn -0.4928 0.8343 -0.2470
vn 0.0262 0.9973 0.0686
vn -0.5955 0.8007 0.0662
vn -0.4843 0.8742 -0.0336
vn -0.2348 0.9686 -0.0814
vn -0.3926 0.9035 0.1719
vn 0.0130 0.8530 0.5217
vn 0.2199 0.9628 -0.1569
vn 0.4438 0.8932 -0.0728
vn 0.5285 0.8444 -0.0871
vn 0.7344 0.6610 0.1539
vn 0.9140 0.3472 -0.2097
vn 0.6832 0.6047 -0.4094
vn -0.0584 0.4788 -0.8760
vn -0.3420 0.2373 -0.9093
vn -0.6165 0.3910 -0.6834
vn -0.8178 0.5689 -0.0865
vn -0.9256 0.3784 0.0000
vn -0.8714 0.4881 0.0486
vn -0.6196 0.4763 0.6239
vn -0.3825 0.2940 0.8759
vn -0.0873 0.4887 0.8681
vn 0.6642 0.4209 0.6178
vn 0.8890 0.1232 0.4410
vn 0.8724 0.4853 0.0588
vn 0.3109 0.2907 -0.9049
vn 0.3167 -0.0509 -0.9472
vn -0.0502 -0.3418 -0.9384
vn -0.8356 -0.0028 -0.5493
vn -0.7831 -0.2906 -0.5498
vn -0.7847 -0.5709 -0.2414
vn -0.9175 0.0721 0.3912
vn -0.9030 -0.1826 0.3889
vn -0.6988 -0.4304 0.5714
vn 0.3881 0.1076 0.9153
vn 0.3831 -0.0351 0.9231
vn 0.6684 -0.3477 0.6576
vn 0.6545 0.7416 0.1475
vn 0.9802 -0.1966 -0.0230
vn 0.9755 -0.2147 -0.0476
vn 0.4779 -0.8297 -0.2885
vn 0.4051 -0.8645 -0.2975
vn 0.0207 -0.8189 -0.5736
vn -0.2343 -0.8095 -0.5384
vn -0.3241 -0.9389 -0.1155
vn -0.4444 -0.8893 -0.1081
vn -0.4567 -0.8889 0.0353
vn -0.2861 -0.9557 0.0698
vn -0.3032 -0.8437 0.4430
vn 0.5707 -0.7976 -0.1954
vn 0.4235 -0.9021 -0.0834
vn 0.1398 -0.9830 -0.1188
vn -0.0159 -0.8604 0.5095
vn 0.1519 -0.9078 0.3908
vn 0.3121 -0.8621 0.3992
usemtl Material.001
s off
f 1/1/1 14/2/1 13/3/1
f 2/4/2 14/5/2 16/6/2
f 1/7/3 13/8/3 18/9/3
f 1/10/4 18/11/4 20/12/4
f 1/13/5 20/14/5 17/15/5
f 2/4/6 16/6/6 23/16/6
f 3/17/7 15/18/7 25/19/7
f 4/20/8 19/21/8 27/22/8
f 5/23/9 21/24/9 29/25/9
f 6/26/10 22/27/10 31/28/10
f 2/4/11 23/16/11 26/29/11
f 3/17/12 25/19/12 28/30/12
f 4/20/13 27/22/13 30/31/13
f 5/23/14 29/25/14 32/32/14
f 6/26/15 31/28/15 24/33/15
f 7/34/16 33/35/16 38/36/16
f 8/37/17 34/38/17 40/39/17
f 9/40/18 35/41/18 41/42/18
f 10/43/19 36/44/19 42/45/19
f 11/46/20 37/47/20 39/48/20
f 39/48/21 42/49/21 12/50/21
f 39/48/22 37/47/22 42/49/22
f 37/47/23 10/43/23 42/49/23
f 42/45/24 41/51/24 12/52/24
f 42/45/25 36/44/25 41/51/25
f 36/44/26 9/40/26 41/51/26
f 41/42/27 40/53/27 12/54/27
f 41/42/28 35/41/28 40/53/28
f 35/41/29 8/55/29 40/53/29
f 40/39/30 38/56/30 12/57/30
f 40/39/31 34/38/31 38/56/31
f 34/38/32 7/34/32 38/56/32
f 38/36/33 39/58/33 12/59/33
f 38/36/34 33/35/34 39/58/34
f 33/35/35 11/46/35 39/58/35
f 24/33/36 37/47/36 11/46/36
f 24/33/37 31/28/37 37/47/37
f 31/28/38 10/43/38 37/47/38
f 32/32/39 36/44/39 10/43/39
f 32/32/40 29/25/40 36/44/40
f 29/25/41 9/40/41 36/44/41
f 30/31/42 35/41/42 9/40/42
f 30/31/43 27/22/43 35/41/43
f 27/22/44 8/55/44 35/41/44
f 28/30/45 34/38/45 8/37/45
f 28/30/46 25/19/46 34/38/46
f 25/19/47 7/34/47 34/38/47
f 26/29/48 33/35/48 7/34/48
f 26/29/49 23/16/49 33/35/49
f 23/16/50 11/46/50 33/35/50
f 31/28/51 32/32/51 10/43/51
f 31/28/52 22/27/52 32/32/52
f 22/27/53 5/23/53 32/32/53
f 29/25/54 30/31/54 9/40/54
f 29/25/55 21/24/55 30/31/55
f 21/24/56 4/20/56 30/31/56
f 27/22/57 28/60/57 8/55/57
f 27/22/58 19/21/58 28/60/58
f 19/21/59 3/61/59 28/60/59
f 25/19/60 26/29/60 7/34/60
f 25/19/61 15/18/61 26/29/61
f 15/18/62 2/4/62 26/29/62
f 23/16/63 24/33/63 11/46/63
f 23/16/64 16/6/64 24/33/64
f 16/6/65 6/26/65 24/33/65
f 17/15/66 22/27/66 6/26/66
f 17/15/67 20/14/67 22/27/67
f 20/14/68 5/23/68 22/27/68
f 20/12/69 21/24/69 5/23/69
f 20/12/70 18/11/70 21/24/70
f 18/11/71 4/20/71 21/24/71
f 18/9/72 19/21/72 4/20/72
f 18/9/73 13/8/73 19/21/73
f 13/8/74 3/61/74 19/21/74
f 16/6/75 17/62/75 6/26/75
f 16/6/76 14/5/76 17/62/76
f 14/5/77 1/63/77 17/62/77
f 13/3/78 15/18/78 3/17/78
f 13/3/79 14/2/79 15/18/79
f 14/2/80 2/4/80 15/18/80
