# Blender v2.83.5 OBJ File: 'miner.blend'
# www.blender.org
mtllib shipyard.mtl
o Cube.001
v -2.123029 -0.987921 1.200031
v -2.123029 0.987921 1.200031
v -2.123029 -0.987921 -1.200031
v -2.123029 0.987921 -1.200031
v 0.992010 -1.291336 1.200031
v 0.992010 1.291336 1.200031
v 0.992010 -1.291336 -1.200031
v 0.992010 1.291336 -1.200031
v -2.123029 -0.887136 1.200031
v -2.123029 0.887136 1.200031
v -2.123029 0.887136 -1.200031
v -2.123029 -0.887136 -1.200031
v 0.992010 1.206224 -1.200031
v 0.992010 -1.206224 -1.200031
v 0.992010 1.206224 1.200031
v 0.992010 -1.206224 1.200031
v -2.123029 -1.345381 -0.873583
v -2.123029 -1.345381 0.873583
v -2.123029 1.345381 0.873583
v -2.123029 1.345381 -0.873583
v 1.611235 -1.867132 0.481898
v 1.611235 -1.867132 -0.481898
v 1.611235 1.867132 -0.481898
v 1.611235 1.867132 0.481898
v 1.611235 -1.744069 -0.481898
v 1.611235 -1.744069 0.481898
v 1.611235 1.744069 -0.481898
v 1.611235 1.744069 0.481898
v -2.123029 -1.282702 0.313524
v -2.123029 -1.282702 -0.313524
v -2.123029 1.282702 0.313524
v -2.123029 1.282702 -0.313524
v -1.464058 0.887136 -1.200031
v -1.464058 -0.887136 -1.200031
v -1.464058 0.887136 1.200031
v -1.464058 -0.887136 1.200031
v -1.725077 -1.282702 0.324704
v -1.725077 1.282702 0.324704
v -1.725077 -1.282702 -0.324704
v -1.725077 1.282702 -0.324704
vt 0.559100 0.715957
vt 0.544979 0.715858
vt 0.545077 0.701737
vt 0.559198 0.701835
vt 0.573467 0.817010
vt 0.587589 0.817010
vt 0.587589 0.859375
vt 0.573467 0.859375
vt 0.573467 0.887618
vt 0.587589 0.887618
vt 0.587589 0.901740
vt 0.573467 0.901740
vt 0.587589 0.944104
vt 0.573467 0.944104
vt 0.502859 0.887618
vt 0.545224 0.887618
vt 0.545224 0.901740
vt 0.502859 0.901740
vt 0.629953 0.887618
vt 0.629953 0.901740
vt 0.559345 0.901740
vt 0.559345 0.944104
vt 0.545224 0.944104
vt 0.559345 0.887618
vt 0.466146 0.190104
vt 0.466146 0.106771
vt 0.466146 0.106771
vt 0.466146 0.190104
vt 0.545224 0.817010
vt 0.559345 0.817010
vt 0.559345 0.859375
vt 0.545224 0.859375
vt 0.459711 0.561134
vt 0.441077 0.561134
vt 0.441077 0.542500
vt 0.459711 0.542500
vt 0.587343 0.716153
vt 0.573222 0.716055
vt 0.573320 0.701934
vt 0.587441 0.702032
vt 0.441077 0.430697
vt 0.459711 0.430697
vt 0.459711 0.449331
vt 0.441077 0.449331
vt 0.587147 0.744395
vt 0.573025 0.744297
vt 0.573123 0.730176
vt 0.587245 0.730274
vt 0.549479 0.106771
vt 0.549479 0.190104
vt 0.549479 0.190104
vt 0.549479 0.106771
vt 0.559345 0.873497
vt 0.545224 0.873497
vt 0.629953 0.859375
vt 0.629953 0.873497
vt 0.587589 0.873497
vt 0.502859 0.859375
vt 0.502859 0.873497
vt 0.573467 0.873497
vt 0.558904 0.744199
vt 0.544783 0.744101
vt 0.544881 0.729980
vt 0.559002 0.730078
vt 0.466146 0.273438
vt 0.466146 0.273438
vt 0.549479 0.023438
vt 0.549479 0.023438
vt 0.466146 0.023438
vt 0.466146 0.023438
vt 0.549479 0.273438
vt 0.549479 0.273438
vt 0.458333 0.000000
vt 0.458333 0.083333
vt 0.458333 0.166667
vt 0.458333 0.250000
vt 0.541667 0.000000
vt 0.541667 0.083333
vt 0.541667 0.166667
vt 0.541667 0.250000
vt 0.558557 0.692162
vt 0.558557 0.692162
vt 0.572678 0.692260
vt 0.572678 0.692260
vt 0.558262 0.734526
vt 0.558262 0.734526
vt 0.572384 0.734624
vt 0.572384 0.734624
vn -1.0000 0.0000 0.0000
vn -0.0000 0.0000 -1.0000
vn 0.7573 0.0000 0.6530
vn 0.0000 0.0000 1.0000
vn -0.0546 -0.7605 0.6471
vn -0.0546 0.7605 0.6471
vn 0.1370 0.9906 0.0000
vn 1.0000 0.0000 0.0000
vn 0.1370 -0.9906 0.0000
vn 0.7573 0.0000 -0.6530
vn -0.0546 0.7605 -0.6471
vn -0.1384 0.9904 0.0000
vn -0.0546 -0.7605 -0.6471
vn -0.1384 -0.9904 0.0000
vn 0.1300 0.8680 -0.4792
vn 0.1300 -0.8680 0.4792
vn 0.1300 0.8680 0.4792
vn 0.1300 -0.8680 -0.4792
vn -0.0281 0.0000 -0.9996
vn -0.0281 0.0000 0.9996
vn 0.0043 0.9120 -0.4102
vn 0.0043 0.9120 0.4102
vn 0.0043 -0.9120 -0.4102
vn 0.0043 -0.9120 0.4102
usemtl Material.001
s off
f 32/1/1 20/2/1 4/3/1 11/4/1
f 11/5/2 4/6/2 8/7/2 13/8/2
f 28/9/3 24/10/3 6/11/3 15/12/3
f 15/12/4 6/11/4 2/13/4 10/14/4
f 18/15/5 21/16/5 5/17/5 1/18/5
f 24/10/6 19/19/6 2/20/6 6/11/6
f 5/17/4 16/21/4 9/22/4 1/23/4
f 21/16/3 26/24/3 16/21/3 5/17/3
f 26/25/7 25/26/7 39/27/7 37/28/7
f 3/29/2 12/30/2 14/31/2 7/32/2
f 38/33/8 37/34/8 39/35/8 40/36/8
f 17/37/1 30/38/1 12/39/1 3/40/1
f 29/41/1 31/42/1 32/43/1 30/44/1
f 1/45/1 9/46/1 29/47/1 18/48/1
f 18/48/1 29/47/1 30/38/1 17/37/1
f 27/49/9 28/50/9 38/51/9 40/52/9
f 7/32/10 14/31/10 25/53/10 22/54/10
f 22/54/8 25/53/8 26/24/8 21/16/8
f 8/7/11 4/55/11 20/56/11 23/57/11
f 23/57/12 20/56/12 19/19/12 24/10/12
f 3/58/13 7/32/13 22/54/13 17/59/13
f 17/59/14 22/54/14 21/16/14 18/15/14
f 13/8/10 8/7/10 23/57/10 27/60/10
f 27/60/8 23/57/8 24/10/8 28/9/8
f 10/61/1 2/62/1 19/63/1 31/64/1
f 31/64/1 19/63/1 20/2/1 32/1/1
f 16/65/15 26/25/15 37/28/15 36/66/15
f 13/67/16 27/49/16 40/52/16 33/68/16
f 25/26/17 14/69/17 34/70/17 39/27/17
f 28/50/18 15/71/18 35/72/18 38/51/18
f 32/43/19 40/36/19 39/35/19 30/44/19
f 31/42/20 29/41/20 37/34/20 38/33/20
f 9/73/21 36/66/21 37/28/21 29/74/21
f 30/75/22 39/27/22 34/70/22 12/76/22
f 10/77/23 31/78/23 38/51/23 35/72/23
f 32/79/24 11/80/24 33/68/24 40/52/24
f 10/61/4 35/81/4 15/82/4
f 16/83/4 36/84/4 9/46/4
f 13/85/2 33/86/2 11/4/2
f 14/87/2 12/39/2 34/88/2
